<mxfile host="app.diagrams.net" agent="Mozilla/5.0 (X11; Linux x86_64; rv:136.0) Gecko/20100101 Firefox/136.0" version="26.1.3">
  <diagram name="Página-1" id="81k6pfxS5LgnZ5fJO8in">
    <mxGraphModel dx="1434" dy="822" grid="1" gridSize="10" guides="1" tooltips="1" connect="1" arrows="1" fold="1" page="1" pageScale="1" pageWidth="827" pageHeight="1169" math="0" shadow="0">
      <root>
        <mxCell id="0" />
        <mxCell id="1" parent="0" />
        <mxCell id="_4SPdL2_WH518IZdtTf2-4" value="Pyscrapper" style="swimlane;whiteSpace=wrap;html=1;startSize=23;movable=1;resizable=1;rotatable=1;deletable=1;editable=1;locked=0;connectable=1;" parent="1" vertex="1">
          <mxGeometry x="130" y="90" width="560" height="510" as="geometry">
            <mxRectangle x="130" y="90" width="140" height="30" as="alternateBounds" />
          </mxGeometry>
        </mxCell>
        <mxCell id="_4SPdL2_WH518IZdtTf2-8" value="" style="rounded=0;whiteSpace=wrap;html=1;fillColor=#fff2cc;strokeColor=#d6b656;" parent="_4SPdL2_WH518IZdtTf2-4" vertex="1">
          <mxGeometry x="138" y="110" width="390" height="30" as="geometry" />
        </mxCell>
        <mxCell id="_4SPdL2_WH518IZdtTf2-10" value="Buscar" style="text;html=1;align=center;verticalAlign=middle;whiteSpace=wrap;rounded=0;fillColor=#fff2cc;strokeColor=#d6b656;" parent="_4SPdL2_WH518IZdtTf2-4" vertex="1">
          <mxGeometry x="37" y="110" width="90" height="30" as="geometry" />
        </mxCell>
        <mxCell id="_4SPdL2_WH518IZdtTf2-45" value="Todas" style="rounded=1;whiteSpace=wrap;html=1;fillColor=#f8cecc;strokeColor=#b85450;" parent="_4SPdL2_WH518IZdtTf2-4" vertex="1">
          <mxGeometry x="337" y="45" width="72" height="30" as="geometry" />
        </mxCell>
        <mxCell id="_4SPdL2_WH518IZdtTf2-63" value="Página Actual" style="rounded=0;whiteSpace=wrap;html=1;" parent="_4SPdL2_WH518IZdtTf2-4" vertex="1">
          <mxGeometry x="430" y="30" width="120" height="60" as="geometry" />
        </mxCell>
        <mxCell id="_4SPdL2_WH518IZdtTf2-90" value="&lt;div&gt;Buscar GPUs&lt;/div&gt;" style="rounded=1;whiteSpace=wrap;html=1;" parent="_4SPdL2_WH518IZdtTf2-4" vertex="1">
          <mxGeometry x="94" y="170" width="170" height="30" as="geometry" />
        </mxCell>
        <mxCell id="_4SPdL2_WH518IZdtTf2-91" value="Buscar CPUs" style="rounded=1;whiteSpace=wrap;html=1;" parent="_4SPdL2_WH518IZdtTf2-4" vertex="1">
          <mxGeometry x="312" y="170" width="162" height="30" as="geometry" />
        </mxCell>
        <mxCell id="_4SPdL2_WH518IZdtTf2-94" value="tick" style="whiteSpace=wrap;html=1;aspect=fixed;fillColor=#f5f5f5;fontColor=#333333;strokeColor=#666666;" parent="_4SPdL2_WH518IZdtTf2-4" vertex="1">
          <mxGeometry x="15" y="47.5" width="25" height="25" as="geometry" />
        </mxCell>
        <mxCell id="_4SPdL2_WH518IZdtTf2-97" value="ver pág" style="text;html=1;align=center;verticalAlign=middle;whiteSpace=wrap;rounded=0;" parent="_4SPdL2_WH518IZdtTf2-4" vertex="1">
          <mxGeometry x="40" y="45" width="50" height="30" as="geometry" />
        </mxCell>
        <mxCell id="_4SPdL2_WH518IZdtTf2-40" value="Maximus" style="rounded=1;whiteSpace=wrap;html=1;container=0;fillColor=#f8cecc;strokeColor=#b85450;" parent="_4SPdL2_WH518IZdtTf2-4" vertex="1">
          <mxGeometry x="110" y="45" width="72" height="30" as="geometry" />
        </mxCell>
        <mxCell id="_4SPdL2_WH518IZdtTf2-43" value="Compragamer" style="rounded=1;whiteSpace=wrap;html=1;fillColor=#f8cecc;strokeColor=#b85450;" parent="_4SPdL2_WH518IZdtTf2-4" vertex="1">
          <mxGeometry x="201" y="45" width="118" height="30" as="geometry" />
        </mxCell>
        <mxCell id="_4SPdL2_WH518IZdtTf2-135" value="" style="group" parent="_4SPdL2_WH518IZdtTf2-4" vertex="1" connectable="0">
          <mxGeometry x="94" y="215" width="380" height="195" as="geometry" />
        </mxCell>
        <mxCell id="_4SPdL2_WH518IZdtTf2-127" value="" style="shape=internalStorage;whiteSpace=wrap;html=1;backgroundOutline=1;dx=190;dy=25;" parent="_4SPdL2_WH518IZdtTf2-135" vertex="1">
          <mxGeometry width="380" height="194" as="geometry" />
        </mxCell>
        <mxCell id="_4SPdL2_WH518IZdtTf2-130" value="Artículo" style="text;html=1;align=center;verticalAlign=middle;whiteSpace=wrap;rounded=0;" parent="_4SPdL2_WH518IZdtTf2-135" vertex="1">
          <mxGeometry width="190" height="25" as="geometry" />
        </mxCell>
        <mxCell id="_4SPdL2_WH518IZdtTf2-131" value="Precio" style="text;html=1;align=center;verticalAlign=middle;whiteSpace=wrap;rounded=0;" parent="_4SPdL2_WH518IZdtTf2-135" vertex="1">
          <mxGeometry x="190" width="190" height="25" as="geometry" />
        </mxCell>
        <mxCell id="_4SPdL2_WH518IZdtTf2-133" value="(Artículos del dict)" style="text;html=1;align=center;verticalAlign=middle;whiteSpace=wrap;rounded=0;" parent="_4SPdL2_WH518IZdtTf2-135" vertex="1">
          <mxGeometry y="25" width="190" height="170" as="geometry" />
        </mxCell>
        <mxCell id="_4SPdL2_WH518IZdtTf2-134" value="(Precios del dict)" style="text;html=1;align=center;verticalAlign=middle;whiteSpace=wrap;rounded=0;" parent="_4SPdL2_WH518IZdtTf2-135" vertex="1">
          <mxGeometry x="190" y="25" width="190" height="170" as="geometry" />
        </mxCell>
        <mxCell id="_4SPdL2_WH518IZdtTf2-142" value="Cerrar Pág" style="rounded=1;whiteSpace=wrap;html=1;" parent="_4SPdL2_WH518IZdtTf2-4" vertex="1">
          <mxGeometry x="380" y="470" width="74" height="25" as="geometry" />
        </mxCell>
        <mxCell id="_4SPdL2_WH518IZdtTf2-143" value="Guardar" style="rounded=1;whiteSpace=wrap;html=1;" parent="_4SPdL2_WH518IZdtTf2-4" vertex="1">
          <mxGeometry x="470" y="470" width="74" height="25" as="geometry" />
        </mxCell>
        <mxCell id="_4SPdL2_WH518IZdtTf2-150" value="abrir csv" style="rounded=1;whiteSpace=wrap;html=1;" parent="_4SPdL2_WH518IZdtTf2-4" vertex="1">
          <mxGeometry x="247" y="420" width="74" height="25" as="geometry" />
        </mxCell>
        <mxCell id="_4SPdL2_WH518IZdtTf2-12" value="" style="endArrow=none;dashed=1;html=1;dashPattern=1 3;strokeWidth=2;rounded=0;entryX=0.5;entryY=1;entryDx=0;entryDy=0;exitX=0;exitY=0.5;exitDx=0;exitDy=0;exitPerimeter=0;" parent="1" source="_4SPdL2_WH518IZdtTf2-14" target="_4SPdL2_WH518IZdtTf2-10" edge="1">
          <mxGeometry width="50" height="50" relative="1" as="geometry">
            <mxPoint x="760" y="280" as="sourcePoint" />
            <mxPoint x="500" y="320" as="targetPoint" />
            <Array as="points">
              <mxPoint x="760" y="215" />
              <mxPoint x="760" y="240" />
              <mxPoint x="212" y="241" />
            </Array>
          </mxGeometry>
        </mxCell>
        <mxCell id="_4SPdL2_WH518IZdtTf2-14" value="" style="strokeWidth=2;html=1;shape=mxgraph.flowchart.decision;whiteSpace=wrap;" parent="1" vertex="1">
          <mxGeometry x="760" y="195" width="40" height="40" as="geometry" />
        </mxCell>
        <mxCell id="_4SPdL2_WH518IZdtTf2-15" value="" style="endArrow=classic;html=1;rounded=0;" parent="1" edge="1">
          <mxGeometry relative="1" as="geometry">
            <mxPoint x="800" y="214.60000000000002" as="sourcePoint" />
            <mxPoint x="970" y="215" as="targetPoint" />
          </mxGeometry>
        </mxCell>
        <mxCell id="_4SPdL2_WH518IZdtTf2-16" value="Tiene algo escrito" style="edgeLabel;resizable=0;html=1;;align=center;verticalAlign=middle;" parent="_4SPdL2_WH518IZdtTf2-15" connectable="0" vertex="1">
          <mxGeometry relative="1" as="geometry" />
        </mxCell>
        <mxCell id="_4SPdL2_WH518IZdtTf2-19" value="" style="rounded=1;whiteSpace=wrap;html=1;absoluteArcSize=1;arcSize=14;strokeWidth=2;" parent="1" vertex="1">
          <mxGeometry x="970" y="190" width="100" height="50" as="geometry" />
        </mxCell>
        <mxCell id="_4SPdL2_WH518IZdtTf2-20" value="Search" style="text;html=1;align=center;verticalAlign=middle;whiteSpace=wrap;rounded=0;" parent="1" vertex="1">
          <mxGeometry x="990" y="200" width="60" height="30" as="geometry" />
        </mxCell>
        <mxCell id="_4SPdL2_WH518IZdtTf2-21" value="" style="endArrow=classic;html=1;rounded=0;entryX=0;entryY=0.5;entryDx=0;entryDy=0;exitX=0.5;exitY=1;exitDx=0;exitDy=0;exitPerimeter=0;" parent="1" source="_4SPdL2_WH518IZdtTf2-14" target="_4SPdL2_WH518IZdtTf2-23" edge="1">
          <mxGeometry relative="1" as="geometry">
            <mxPoint x="780" y="255" as="sourcePoint" />
            <mxPoint x="920" y="285" as="targetPoint" />
            <Array as="points">
              <mxPoint x="780" y="280" />
            </Array>
          </mxGeometry>
        </mxCell>
        <mxCell id="_4SPdL2_WH518IZdtTf2-22" value="No tiene algo escrito" style="edgeLabel;resizable=0;html=1;;align=center;verticalAlign=middle;" parent="_4SPdL2_WH518IZdtTf2-21" connectable="0" vertex="1">
          <mxGeometry relative="1" as="geometry">
            <mxPoint x="26" as="offset" />
          </mxGeometry>
        </mxCell>
        <mxCell id="_4SPdL2_WH518IZdtTf2-23" value="" style="rounded=1;whiteSpace=wrap;html=1;absoluteArcSize=1;arcSize=14;strokeWidth=2;" parent="1" vertex="1">
          <mxGeometry x="970" y="255" width="100" height="50" as="geometry" />
        </mxCell>
        <mxCell id="_4SPdL2_WH518IZdtTf2-24" value="error popup" style="text;html=1;align=center;verticalAlign=middle;whiteSpace=wrap;rounded=0;" parent="1" vertex="1">
          <mxGeometry x="990" y="265" width="60" height="30" as="geometry" />
        </mxCell>
        <mxCell id="_4SPdL2_WH518IZdtTf2-25" value="" style="strokeWidth=2;html=1;shape=mxgraph.flowchart.decision;whiteSpace=wrap;" parent="1" vertex="1">
          <mxGeometry x="1210" y="195" width="40" height="40" as="geometry" />
        </mxCell>
        <mxCell id="_4SPdL2_WH518IZdtTf2-26" value="" style="endArrow=classic;html=1;rounded=0;exitX=1;exitY=0.5;exitDx=0;exitDy=0;exitPerimeter=0;" parent="1" source="_4SPdL2_WH518IZdtTf2-25" edge="1">
          <mxGeometry relative="1" as="geometry">
            <mxPoint x="1280" y="215" as="sourcePoint" />
            <mxPoint x="1380" y="214.72000000000003" as="targetPoint" />
          </mxGeometry>
        </mxCell>
        <mxCell id="_4SPdL2_WH518IZdtTf2-27" value="Encontró algo" style="edgeLabel;resizable=0;html=1;;align=center;verticalAlign=middle;" parent="_4SPdL2_WH518IZdtTf2-26" connectable="0" vertex="1">
          <mxGeometry relative="1" as="geometry" />
        </mxCell>
        <mxCell id="_4SPdL2_WH518IZdtTf2-29" value="" style="endArrow=classic;html=1;rounded=0;exitX=1;exitY=0.5;exitDx=0;exitDy=0;entryX=0;entryY=0.5;entryDx=0;entryDy=0;entryPerimeter=0;" parent="1" source="_4SPdL2_WH518IZdtTf2-19" target="_4SPdL2_WH518IZdtTf2-25" edge="1">
          <mxGeometry width="50" height="50" relative="1" as="geometry">
            <mxPoint x="1120" y="235" as="sourcePoint" />
            <mxPoint x="1170" y="185" as="targetPoint" />
          </mxGeometry>
        </mxCell>
        <mxCell id="_4SPdL2_WH518IZdtTf2-30" value="" style="endArrow=classic;html=1;rounded=0;exitX=0.5;exitY=1;exitDx=0;exitDy=0;exitPerimeter=0;entryX=1;entryY=0.5;entryDx=0;entryDy=0;" parent="1" source="_4SPdL2_WH518IZdtTf2-25" target="_4SPdL2_WH518IZdtTf2-23" edge="1">
          <mxGeometry relative="1" as="geometry">
            <mxPoint x="1220" y="185" as="sourcePoint" />
            <mxPoint x="1320" y="185" as="targetPoint" />
            <Array as="points">
              <mxPoint x="1230" y="280" />
            </Array>
          </mxGeometry>
        </mxCell>
        <mxCell id="_4SPdL2_WH518IZdtTf2-31" value="No encontró nada" style="edgeLabel;resizable=0;html=1;;align=center;verticalAlign=middle;" parent="_4SPdL2_WH518IZdtTf2-30" connectable="0" vertex="1">
          <mxGeometry relative="1" as="geometry">
            <mxPoint x="-22" as="offset" />
          </mxGeometry>
        </mxCell>
        <mxCell id="_4SPdL2_WH518IZdtTf2-68" value="" style="edgeStyle=orthogonalEdgeStyle;rounded=0;orthogonalLoop=1;jettySize=auto;html=1;" parent="1" source="_4SPdL2_WH518IZdtTf2-32" target="_4SPdL2_WH518IZdtTf2-67" edge="1">
          <mxGeometry relative="1" as="geometry" />
        </mxCell>
        <mxCell id="_4SPdL2_WH518IZdtTf2-32" value="" style="rounded=1;whiteSpace=wrap;html=1;absoluteArcSize=1;arcSize=14;strokeWidth=2;" parent="1" vertex="1">
          <mxGeometry x="1380" y="190" width="100" height="50" as="geometry" />
        </mxCell>
        <mxCell id="_4SPdL2_WH518IZdtTf2-33" value="info popup" style="text;html=1;align=center;verticalAlign=middle;whiteSpace=wrap;rounded=0;" parent="1" vertex="1">
          <mxGeometry x="1400" y="200" width="60" height="30" as="geometry" />
        </mxCell>
        <mxCell id="_4SPdL2_WH518IZdtTf2-34" value="" style="shape=process;whiteSpace=wrap;html=1;backgroundOutline=1;" parent="1" vertex="1">
          <mxGeometry x="980" y="150" width="220" height="30" as="geometry" />
        </mxCell>
        <mxCell id="_4SPdL2_WH518IZdtTf2-35" value="search_button" style="text;html=1;align=center;verticalAlign=middle;whiteSpace=wrap;rounded=0;" parent="1" vertex="1">
          <mxGeometry x="980" y="150" width="220" height="30" as="geometry" />
        </mxCell>
        <mxCell id="_4SPdL2_WH518IZdtTf2-59" value="" style="endArrow=classic;html=1;rounded=0;exitX=1;exitY=0.5;exitDx=0;exitDy=0;dashed=1;dashPattern=12 12;entryX=0;entryY=0.5;entryDx=0;entryDy=0;entryPerimeter=0;" parent="1" source="_4SPdL2_WH518IZdtTf2-143" target="_4SPdL2_WH518IZdtTf2-146" edge="1">
          <mxGeometry relative="1" as="geometry">
            <mxPoint x="812" y="475" as="sourcePoint" />
            <mxPoint x="779" y="573" as="targetPoint" />
            <Array as="points">
              <mxPoint x="720" y="573" />
            </Array>
          </mxGeometry>
        </mxCell>
        <mxCell id="_4SPdL2_WH518IZdtTf2-67" value="poner en dict lo encontrado" style="whiteSpace=wrap;html=1;rounded=1;arcSize=14;strokeWidth=2;" parent="1" vertex="1">
          <mxGeometry x="1510" y="185" width="120" height="60" as="geometry" />
        </mxCell>
        <mxCell id="_4SPdL2_WH518IZdtTf2-75" value="" style="endArrow=classic;html=1;rounded=0;dashed=1;dashPattern=12 12;entryX=0;entryY=0.5;entryDx=0;entryDy=0;exitX=1;exitY=0.5;exitDx=0;exitDy=0;entryPerimeter=0;" parent="1" source="_4SPdL2_WH518IZdtTf2-63" target="_4SPdL2_WH518IZdtTf2-148" edge="1">
          <mxGeometry relative="1" as="geometry">
            <mxPoint x="720" y="140" as="sourcePoint" />
            <mxPoint x="769.9999999999998" y="150.0000000000001" as="targetPoint" />
          </mxGeometry>
        </mxCell>
        <mxCell id="_4SPdL2_WH518IZdtTf2-146" value="Tiene que estar activo sólo si hay algo para guardar" style="shape=note;whiteSpace=wrap;html=1;backgroundOutline=1;darkOpacity=0.05;size=9;" parent="1" vertex="1">
          <mxGeometry x="790" y="547" width="120" height="51" as="geometry" />
        </mxCell>
        <mxCell id="_4SPdL2_WH518IZdtTf2-148" value="Si no hay ninguna pagina actual, solo se puede cliquear alguna &lt;span style=&quot;color: light-dark(rgb(237, 51, 59), rgb(237, 237, 237));&quot;&gt;página&lt;/span&gt;" style="shape=note;whiteSpace=wrap;html=1;backgroundOutline=1;darkOpacity=0.05;size=11;" parent="1" vertex="1">
          <mxGeometry x="770" y="117.5" width="170" height="65" as="geometry" />
        </mxCell>
      </root>
    </mxGraphModel>
  </diagram>
</mxfile>
